<svg width="50" height="48" viewBox="0 0 50 48" fill="none" xmlns="http://www.w3.org/2000/svg">
<path d="M45.4513 15.1077C45.4513 21.84 42.0175 24.72 37.7795 24.72C33.5416 24.72 30.1078 21.84 30.1078 15.1077C30.1078 8.3755 33.5416 1 37.7795 1C42.0175 1 45.4513 8.3755 45.4513 15.1077Z" stroke="#333333" stroke-width="1.5" stroke-miterlimit="10" stroke-linecap="round"/>
<path d="M45.1688 10.583C47.3928 12.5128 48.9503 16.884 48.9503 20.9628C48.9503 26.4012 46.1757 28.7257 42.7564 28.7257C40.8511 28.7257 39.1415 28.002 38.0114 26.4231" stroke="#333333" stroke-width="1.5" stroke-miterlimit="10" stroke-linecap="round"/>
<path d="M37.7795 8.5509V44.2077" stroke="#333333" stroke-width="1.5" stroke-miterlimit="10" stroke-linecap="round"/>
<path d="M38.0042 18.4994L41.3945 13.8943" stroke="#333333" stroke-width="1.5" stroke-miterlimit="10" stroke-linecap="round"/>
<path d="M34.5051 11.833L37.6781 15.2686" stroke="#333333" stroke-width="1.5" stroke-miterlimit="10" stroke-linecap="round"/>
<path d="M3.78186 21.7157L8.06327 35.129L27.8403 35.0998" stroke="#333333" stroke-width="1.5" stroke-miterlimit="10" stroke-linecap="round"/>
<path d="M7.62134 43.9007L13.156 35.3118" stroke="#333333" stroke-width="1.5" stroke-miterlimit="10" stroke-linecap="round"/>
<path d="M27.2028 43.9007L21.6681 35.3118" stroke="#333333" stroke-width="1.5" stroke-miterlimit="10" stroke-linecap="round"/>
<path d="M5.75232 26.584H19.9657L22.7331 30.4508" stroke="#333333" stroke-width="1.5" stroke-miterlimit="10" stroke-linecap="round"/>
<path d="M2.83276 47H46.0235" stroke="#333333" stroke-width="1.5" stroke-miterlimit="10" stroke-linecap="round"/>
<path d="M15.438 6.22643C15.2858 6.22643 15.1337 6.23374 14.9816 6.24836C13.9891 4.71332 11.9607 3.45605 9.60628 3.45605C6.45499 3.45605 3.876 5.71475 3.61521 7.87112C2.08665 8.28046 1 9.35499 1 10.6123C1 12.2131 2.75313 13.5069 4.94092 13.5508C5.60016 15.1077 7.30258 16.2188 9.30926 16.2188C11.0914 16.2188 12.6344 15.3416 13.4168 14.0551C14.0398 14.2671 14.7208 14.3841 15.438 14.3841C18.2778 14.3841 20.5815 12.5566 20.5815 10.3053C20.5815 8.05386 18.2778 6.22643 15.438 6.22643Z" stroke="#333333" stroke-width="1.5" stroke-miterlimit="10" stroke-linecap="round"/>
<path d="M42.6188 23.5212V44.2589" stroke="#333333" stroke-width="1.5" stroke-miterlimit="10" stroke-linecap="round"/>
</svg>
