<svg width="39" height="56" viewBox="0 0 39 56" fill="none" xmlns="http://www.w3.org/2000/svg">
<path d="M35.9791 17.6691L33.2476 50.6763C33.044 53.1228 31.1152 55 28.8 55H9.67069C7.35552 55 5.42372 53.1228 5.22305 50.6763L2.49158 17.6691" stroke="#333333" stroke-width="1.5" stroke-miterlimit="10" stroke-linejoin="round"/>
<path d="M37.4706 17.6899H20.9979H19.3596H17.6674H1V16.3579C1 14.9634 2.13812 13.8311 3.53979 13.8311H17.0624H18.6647H20.4109H34.9308C36.3325 13.8311 37.4706 14.9634 37.4706 16.3579V17.6899Z" stroke="#333333" stroke-width="1.5" stroke-miterlimit="10" stroke-linejoin="round"/>
<path d="M3.34509 26.3641H35.1195" stroke="#333333" stroke-width="1.5" stroke-miterlimit="10" stroke-linejoin="round"/>
<path d="M20.9619 17.8746L22.2648 26.0512" stroke="#333333" stroke-width="1.5" stroke-miterlimit="10" stroke-linejoin="round"/>
<path d="M17.0475 13.6999L15.1067 1.50061L18.2784 1L20.3181 13.8131" stroke="#333333" stroke-width="1.5" stroke-miterlimit="10" stroke-linejoin="round"/>
<path d="M19.0901 26.5518L17.7034 17.824" stroke="#333333" stroke-width="1.5" stroke-miterlimit="10" stroke-linejoin="round"/>
<path d="M11.1742 48.8467C12.2064 48.8467 13.0431 48.0142 13.0431 46.9873C13.0431 45.9604 12.2064 45.1279 11.1742 45.1279C10.142 45.1279 9.3053 45.9604 9.3053 46.9873C9.3053 48.0142 10.142 48.8467 11.1742 48.8467Z" stroke="#333333" stroke-width="1.5" stroke-miterlimit="10" stroke-linejoin="round"/>
<path d="M15.8673 42.756C16.8995 42.756 17.7362 41.9235 17.7362 40.8966C17.7362 39.8697 16.8995 39.0372 15.8673 39.0372C14.8352 39.0372 13.9984 39.8697 13.9984 40.8966C13.9984 41.9235 14.8352 42.756 15.8673 42.756Z" stroke="#333333" stroke-width="1.5" stroke-miterlimit="10" stroke-linejoin="round"/>
<path d="M22.0581 53.0423C23.0903 53.0423 23.927 52.2098 23.927 51.1829C23.927 50.156 23.0903 49.3235 22.0581 49.3235C21.0259 49.3235 20.1892 50.156 20.1892 51.1829C20.1892 52.2098 21.0259 53.0423 22.0581 53.0423Z" stroke="#333333" stroke-width="1.5" stroke-miterlimit="10" stroke-linejoin="round"/>
<path d="M27.6679 47.8872C28.7 47.8872 29.5368 47.0547 29.5368 46.0278C29.5368 45.0009 28.7 44.1684 27.6679 44.1684C26.6357 44.1684 25.799 45.0009 25.799 46.0278C25.799 47.0547 26.6357 47.8872 27.6679 47.8872Z" stroke="#333333" stroke-width="1.5" stroke-miterlimit="10" stroke-linejoin="round"/>
</svg>
