<svg width="50" height="47" viewBox="0 0 50 47" fill="none" xmlns="http://www.w3.org/2000/svg">
<path d="M49.1893 18.1897H1C4.56217 15.9797 7.42637 12.8012 9.26065 9.02104L11.1971 5.03186H25.0968H37.9538L41.018 10.1815C42.8267 13.2193 45.3334 15.7834 48.3296 17.6522L49.1893 18.1897Z" stroke="#333333" stroke-width="1.5" stroke-miterlimit="10" stroke-linejoin="round"/>
<path d="M9.82239 18.1385V42.816" stroke="#333333" stroke-width="1.5" stroke-miterlimit="10" stroke-linejoin="round"/>
<path d="M17.4574 18.1385V24.3207" stroke="#333333" stroke-width="1.5" stroke-miterlimit="10" stroke-linejoin="round"/>
<path d="M25.0925 18.1385V24.5084" stroke="#333333" stroke-width="1.5" stroke-miterlimit="10" stroke-linejoin="round"/>
<path d="M32.7318 18.1385V24.1927" stroke="#333333" stroke-width="1.5" stroke-miterlimit="10" stroke-linejoin="round"/>
<path d="M40.3668 18.1385V42.816" stroke="#333333" stroke-width="1.5" stroke-miterlimit="10" stroke-linejoin="round"/>
<path d="M9.67346 9.26843H40.4307" stroke="#333333" stroke-width="1.5" stroke-miterlimit="10" stroke-linejoin="round"/>
<path d="M12.1376 4.72892C12.1376 2.81327 13.1122 1.26453 14.3166 1.26453C15.521 1.26453 16.4956 2.81753 16.4956 4.72892" stroke="#333333" stroke-width="1.5" stroke-miterlimit="10" stroke-linejoin="round"/>
<path d="M32.5786 4.4644C32.5786 2.55301 33.5532 1 34.7576 1C35.962 1 36.9366 2.55301 36.9366 4.4644" stroke="#333333" stroke-width="1.5" stroke-miterlimit="10" stroke-linejoin="round"/>
<path d="M45.4356 42.2314H5.60913V45.9134H45.4356V42.2314Z" stroke="#333333" stroke-width="1.5" stroke-miterlimit="10" stroke-linejoin="round"/>
<path d="M16.7722 42.1418V24.3505H32.9828V42.1418" stroke="#333333" stroke-width="1.5" stroke-miterlimit="10" stroke-linejoin="round"/>
<path d="M16.5808 36.6252H32.8085" stroke="#333333" stroke-width="1.5" stroke-miterlimit="10" stroke-linejoin="round"/>
</svg>
