<svg width="61" height="44" viewBox="0 0 61 44" fill="none" xmlns="http://www.w3.org/2000/svg">
<path d="M54.3554 28.5097H6V5.17365C6 2.87152 7.85982 1 10.1598 1H50.2011C52.4956 1 54.3609 2.866 54.3609 5.17365V28.5097H54.3554Z" stroke="#333333" stroke-width="1.5" stroke-miterlimit="10"/>
<path d="M54.4203 33.7046H5.66868C4.19403 33.7046 3 32.5067 3 31.0271V29.4537C3 29.0783 3.30263 28.7747 3.6768 28.7747H56.4121C56.7863 28.7747 57.0889 29.0783 57.0889 29.4537V31.0271C57.0889 32.5067 55.8949 33.7046 54.4203 33.7046Z" stroke="#333333" stroke-width="1.5" stroke-miterlimit="10"/>
<path d="M24.2649 21.1202H13.7608C12.7868 21.1202 12 20.3307 12 19.3536V13.7666C12 12.7895 12.7868 12 13.7608 12H24.2649C25.2389 12 26.0257 12.7895 26.0257 13.7666V19.3536C26.0257 20.3307 25.2389 21.1202 24.2649 21.1202Z" stroke="#333333" stroke-width="1.5" stroke-miterlimit="10"/>
<path d="M46.5113 21.2968H36.0071C35.0332 21.2968 34.2463 20.5074 34.2463 19.5302V13.9433C34.2463 12.9661 35.0332 12.1766 36.0071 12.1766H46.5113C47.4852 12.1766 48.272 12.9661 48.272 13.9433V19.5302C48.272 20.5019 47.4852 21.2968 46.5113 21.2968Z" stroke="#333333" stroke-width="1.5" stroke-miterlimit="10"/>
<path d="M26.9487 34.1573C26.9487 38.0218 23.8288 41.1576 19.9716 41.1576C16.1144 41.1576 13 38.0218 13 34.1573" stroke="#333333" stroke-width="1.5" stroke-miterlimit="10"/>
<path d="M48.3586 34.1573C48.3586 38.0218 45.2387 41.1576 41.3815 41.1576C37.5298 41.1576 34.4044 38.0274 34.4044 34.1573" stroke="#333333" stroke-width="1.5" stroke-miterlimit="10"/>
<path d="M1 42.7917H59.799" stroke="#333333" stroke-width="1.5" stroke-miterlimit="10" stroke-linecap="round"/>
<path d="M24 8H36.5" stroke="#333333" stroke-width="1.5" stroke-linecap="round"/>
<path d="M27 4L33 4" stroke="#333333" stroke-width="1.5" stroke-linecap="round"/>
</svg>
