<svg width="34" height="34" viewBox="0 0 34 34" fill="none" xmlns="http://www.w3.org/2000/svg">
<path d="M15.8746 6.74135C7.52697 6.74135 6.74146 6.90549 6.74146 17C6.74146 26.9772 7.02283 27.2586 17.0001 27.2586C22.4635 27.2586 26.9187 27.9034 27.1884 22.0531C27.9387 5.53376 26.5787 6.72962 15.8746 6.74135ZM17.0001 23.4248C13.4477 23.4248 10.5752 20.5524 10.5752 17C10.5752 13.4476 13.4477 10.5751 17.0001 10.5751C20.5525 10.5751 23.4249 13.4593 23.4249 17C23.4249 20.5407 20.5525 23.4248 17.0001 23.4248ZM23.6828 11.8179C22.8504 11.8179 22.1821 11.1496 22.1821 10.3172C22.1821 9.4848 22.8504 8.81652 23.6828 8.81652C24.5152 8.81652 25.1835 9.4848 25.1835 10.3172C25.1835 11.1496 24.5035 11.8179 23.6828 11.8179Z" fill="white"/>
<path d="M28.1028 0H5.89724C2.63793 0 0 2.63793 0 5.89724V28.091C0 31.3621 2.63793 34 5.89724 34H28.091C31.3503 34 33.9883 31.3621 33.9883 28.1028V5.89724C34 2.63793 31.3621 0 28.1028 0ZM28.8531 25.1952C26.9655 30.0255 21.9124 29.5097 17 29.5097C11.9117 29.5097 6.99931 29.9669 5.1469 25.1952C4.38483 23.2372 4.49034 20.2124 4.49034 17C4.49034 13.3303 4.3731 10.7745 5.1469 8.80483C7.01103 4.0331 11.8766 4.49035 17 4.49035C21.76 4.49035 25.0076 4.18552 27.411 6.58897C29.7793 8.95724 29.5097 12.111 29.5097 17C29.5097 20.6814 29.6269 23.2138 28.8531 25.1952Z" fill="white"/>
<path d="M16.9999 12.8262C11.4779 12.8262 11.4896 21.1738 16.9999 21.1738C22.522 21.1738 22.5103 12.8262 16.9999 12.8262Z" fill="white"/>
</svg>
