<svg width="34" height="34" viewBox="0 0 34 34" fill="none" xmlns="http://www.w3.org/2000/svg">
<path d="M28.1001 0H5.8999C2.64115 0 0 2.64115 0 5.8999V28.1001C0 31.3589 2.64115 34 5.8999 34H28.1001C31.3589 34 34 31.3589 34 28.1001V5.8999C34.0011 2.64115 31.3589 0 28.1001 0ZM26.5104 21.5902C25.1491 23.3365 18.8806 27.3661 16.708 28.7362C16.5591 28.8308 16.3699 28.8362 16.2155 28.7514C16.0611 28.6666 15.9643 28.5035 15.9643 28.3274V26.0157C15.9643 25.5623 15.6251 25.1806 15.1749 25.1262C9.23259 24.4086 4.6723 20.2441 4.6723 15.213C4.6723 9.67732 10.1916 5.18987 17.0005 5.18987C23.8095 5.18987 29.3288 9.67732 29.3288 15.213C29.3288 17.6345 28.2708 19.857 26.5104 21.5902Z" fill="white"/>
<path d="M8.71802 18.6231V13.0417H10.0076V17.4911H12.7118V18.6231H8.71802Z" fill="white"/>
<path d="M13.3176 18.6231V13.0417H14.6072V18.6231H13.3176Z" fill="white"/>
<path d="M16.9644 15.4306V18.6231H15.6748V13.0417H16.6817L19.2837 16.3201V13.0417H20.5733V18.6231H19.5359L16.9644 15.4306Z" fill="white"/>
<path d="M25.5654 17.4911V18.6231H21.6423V13.0417H25.4948V14.1737H22.9319V15.2588H25.1327V16.3049H22.9319V17.4922L25.5654 17.4911Z" fill="white"/>
</svg>
