<svg width="53" height="51" viewBox="0 0 53 51" fill="none" xmlns="http://www.w3.org/2000/svg">
<path d="M37.5092 10.6927C37.5092 13.5648 35.2008 15.8829 32.3657 15.8829C29.5306 15.8829 27.2222 13.5648 27.2222 10.6927C27.2222 7.82064 29.5306 5.5025 32.3657 5.5025C35.2008 5.5025 37.5092 7.82064 37.5092 10.6927Z" stroke="#333333" stroke-width="1.5"/>
<path d="M32.439 1V3.356" stroke="#333333" stroke-width="1.5" stroke-miterlimit="10" stroke-linecap="round" stroke-linejoin="round"/>
<path d="M25.608 3.78705L27.2601 5.45219" stroke="#333333" stroke-width="1.5" stroke-miterlimit="10" stroke-linecap="round" stroke-linejoin="round"/>
<path d="M22.7316 10.6277H25.0691" stroke="#333333" stroke-width="1.5" stroke-miterlimit="10" stroke-linecap="round" stroke-linejoin="round"/>
<path d="M25.4996 17.5127L27.1517 15.8475" stroke="#333333" stroke-width="1.5" stroke-miterlimit="10" stroke-linecap="round" stroke-linejoin="round"/>
<path d="M32.2837 20.412V18.056" stroke="#333333" stroke-width="1.5" stroke-miterlimit="10" stroke-linecap="round" stroke-linejoin="round"/>
<path d="M39.1175 17.6249L37.4655 15.9597" stroke="#333333" stroke-width="1.5" stroke-miterlimit="10" stroke-linecap="round" stroke-linejoin="round"/>
<path d="M41.9911 10.7842H39.6536" stroke="#333333" stroke-width="1.5" stroke-miterlimit="10" stroke-linecap="round" stroke-linejoin="round"/>
<path d="M39.2259 3.8963L37.5739 5.5644" stroke="#333333" stroke-width="1.5" stroke-miterlimit="10" stroke-linecap="round" stroke-linejoin="round"/>
<path d="M19.1229 49.9298H1L19.612 17.7695L28.7218 33.5116" stroke="#333333" stroke-width="1.5" stroke-miterlimit="10" stroke-linejoin="round"/>
<path d="M12.415 30.2286L26.5689 30.0662" stroke="#333333" stroke-width="1.5" stroke-miterlimit="10"/>
<path d="M52 50.2517H18.8329L35.4179 21.5988L52 50.2517Z" stroke="#333333" stroke-width="1.5" stroke-miterlimit="10" stroke-linejoin="round"/>
<path d="M29.0029 32.6968L41.616 32.5521" stroke="#333333" stroke-width="1.5" stroke-miterlimit="10"/>
</svg>
