<svg width="19" height="19" viewBox="0 0 19 19" fill="none" xmlns="http://www.w3.org/2000/svg">
<path d="M8.1253 16.2497C9.92808 16.2494 11.6789 15.6459 13.099 14.5354L17.5639 19L19 17.5639L14.5351 13.0993C15.6463 11.6792 16.2502 9.92802 16.2506 8.12487C16.2506 3.64502 12.6054 0 8.1253 0C3.64521 0 0 3.64502 0 8.12487C0 12.6047 3.64521 16.2497 8.1253 16.2497ZM8.1253 2.03122C11.4861 2.03122 14.2193 4.76422 14.2193 8.12487C14.2193 11.4855 11.4861 14.2185 8.1253 14.2185C4.76447 14.2185 2.03133 11.4855 2.03133 8.12487C2.03133 4.76422 4.76447 2.03122 8.1253 2.03122Z" fill="white"/>
</svg>
