<svg width="52" height="48" viewBox="0 0 52 48" fill="none" xmlns="http://www.w3.org/2000/svg">
<path d="M50.2622 18.5724H1C4.64148 16.3132 7.56945 13.0639 9.44457 9.19958L11.4241 5.12158H25.6333H38.7765L41.909 10.3859C43.758 13.4913 46.3205 16.1125 49.3834 18.0229L50.2622 18.5724Z" stroke="#333333" stroke-width="1.5" stroke-miterlimit="10" stroke-linejoin="round"/>
<path d="M10.0188 18.5201V43.747" stroke="#333333" stroke-width="1.5" stroke-miterlimit="10" stroke-linejoin="round"/>
<path d="M17.8239 18.5201V24.8399" stroke="#333333" stroke-width="1.5" stroke-miterlimit="10" stroke-linejoin="round"/>
<path d="M25.6289 18.5201V25.0318" stroke="#333333" stroke-width="1.5" stroke-miterlimit="10" stroke-linejoin="round"/>
<path d="M33.4384 18.5201V24.7091" stroke="#333333" stroke-width="1.5" stroke-miterlimit="10" stroke-linejoin="round"/>
<path d="M41.2434 18.5201V43.747" stroke="#333333" stroke-width="1.5" stroke-miterlimit="10" stroke-linejoin="round"/>
<path d="M9.86658 9.45258H41.3086" stroke="#333333" stroke-width="1.5" stroke-miterlimit="10" stroke-linejoin="round"/>
<path d="M12.3856 4.81198C12.3856 2.85367 13.3819 1.27045 14.6131 1.27045C15.8444 1.27045 16.8407 2.85803 16.8407 4.81198" stroke="#333333" stroke-width="1.5" stroke-miterlimit="10" stroke-linejoin="round"/>
<path d="M33.2816 4.54153C33.2816 2.58758 34.2779 1 35.5091 1C36.7404 1 37.7367 2.58758 37.7367 4.54153" stroke="#333333" stroke-width="1.5" stroke-miterlimit="10" stroke-linejoin="round"/>
<path d="M46.425 43.1494H5.71179V46.9134H46.425V43.1494Z" stroke="#333333" stroke-width="1.5" stroke-miterlimit="10" stroke-linejoin="round"/>
<path d="M17.1234 43.0578V24.8704H33.695V43.0578" stroke="#333333" stroke-width="1.5" stroke-miterlimit="10" stroke-linejoin="round"/>
<path d="M16.9277 37.4185H33.5167" stroke="#333333" stroke-width="1.5" stroke-miterlimit="10" stroke-linejoin="round"/>
</svg>
